<svg width="22" height="22" viewBox="0 0 22 22" fill="none" xmlns="http://www.w3.org/2000/svg">
<path d="M17.8473 21.2861H4.15272C2.26031 21.2861 0.714287 19.7401 0.714287 17.8477V4.15314C0.714287 2.26074 2.26031 0.714714 4.15272 0.714714H17.8473C19.7397 0.714714 21.2857 2.26074 21.2857 4.15314V17.8477C21.2857 19.7486 19.7481 21.2861 17.8473 21.2861Z" stroke="#1A1A1A" stroke-width="1.37143"/>
<path d="M7.27018 14.7387C8.26707 15.7356 9.59344 16.2848 11.0043 16.2848C12.4151 16.2848 13.7331 15.7356 14.7384 14.7387C15.7353 13.7418 16.2844 12.4155 16.2844 11.0046C16.2844 9.59376 15.7353 8.26739 14.7384 7.2705C13.7415 6.27361 12.4151 5.72447 11.0043 5.72447C9.59344 5.72447 8.26707 6.27361 7.27018 7.2705C6.27329 8.26739 5.72415 9.59376 5.72415 11.0046C5.72415 12.4155 6.27329 13.7418 7.27018 14.7387Z" stroke="#1A1A1A" stroke-width="1.37143"/>
<path d="M17.3136 5.55098C17.8735 5.55098 18.3274 5.09708 18.3274 4.53717C18.3274 3.97725 17.8735 3.52335 17.3136 3.52335C16.7537 3.52335 16.2998 3.97725 16.2998 4.53717C16.2998 5.09708 16.7537 5.55098 17.3136 5.55098Z" stroke="#1A1A1A" stroke-width="1.37143"/>
</svg>
