<svg width="623" height="327" viewBox="0 0 623 327" fill="none" xmlns="http://www.w3.org/2000/svg">
<path d="M0.915262 249.292V205.698L110.219 33.4963H147.804V93.8372H125.56L56.6539 202.885V204.931H211.981V249.292H0.915262ZM126.583 295.314V235.996L127.606 216.692V33.4963H179.509V295.314H126.583ZM411.54 249.292V205.698L520.844 33.4963H558.429V93.8372H536.185L467.279 202.885V204.931H622.606V249.292H411.54ZM537.208 295.314V235.996L538.231 216.692V33.4963H590.134V295.314H537.208Z" fill="#FFE083"/>
<path d="M243.01 313.456C220.727 293.028 272.454 230.765 301.622 201.597C302.412 208.655 306.521 223.986 316.633 231.444C323.254 236.327 316.122 241.631 291.134 279.323C280.259 295.726 266.114 334.636 243.01 313.456Z" fill="#FFE083"/>
<path d="M377.158 154.542C367.664 183.435 364.775 178.07 346.201 185.499C341.288 186.159 335.594 178.396 333.361 174.432C344.907 169.052 359.496 143.263 351.134 131.452C336.48 110.755 341.665 93.4738 345.364 87.9046C364.312 61.9571 403.305 10.5173 405.773 8.73522C408.54 6.73738 412.823 9.73051 411.662 17.029C410.733 22.8678 385.288 74.3663 372.682 99.3857C371.907 100.851 371.603 104.66 376.58 108.177C381.556 111.693 385.574 110.189 386.449 108.177L425.098 24.7421C427.086 21.9241 431.077 25.211 430.489 26.5667L397.231 108.177C396.153 110.149 395.323 114.866 400.631 117.964C405.939 121.061 410.683 116.879 411.83 114.092C420.773 92.3527 439.237 46.6463 441.549 37.7306C443.86 28.815 452.557 33.2153 452.844 35.3832C447.231 143.362 409.237 154.938 392.843 149.176C385.008 145.776 378.352 150.909 377.158 154.542Z" fill="#FFE083"/>
<path d="M391.179 321.34C399.754 320.524 407.921 310.723 405.267 294.594C404.43 289.508 388.709 248.546 358.616 224.472C330.82 202.234 320.818 176.63 300.121 150.861C293.687 142.851 294.208 126.643 300.121 116.356C311.944 95.7876 260.091 23.2558 236.012 8.14768C226.731 2.32433 224.851 10.7338 226.008 13.2519C241.048 39.045 271.374 91.2846 272.354 93.898C273.579 97.1646 274.545 100.151 271.129 102.473C268.279 104.41 264.089 104.857 262.758 102.473C249.011 77.8368 219.965 27.5028 213.758 23.2561C207.551 19.0094 205.601 23.8211 206.816 26.1144C220.019 51.0228 247.037 102.024 249.487 106.761C252.55 112.681 251.733 114.315 246.425 117.377C243.219 119.227 238.508 118.605 237.237 116.356C222.525 90.3163 198.575 33.1687 194.771 30.4019C180.273 19.8586 198.005 86.8588 210.255 112.175C222.505 137.492 240.726 151.24 253.24 152.138C255.31 152.287 268.338 155.037 279.02 161.176C288.341 166.534 295.17 174.912 297.375 178.819C309.781 200.801 369.496 309.872 374.438 314.807C379.656 320.019 382.604 322.157 391.179 321.34Z" fill="#F2C94C"/>
</svg>
