<svg width="26" height="25" viewBox="0 0 26 25" fill="none" xmlns="http://www.w3.org/2000/svg">
<path fill-rule="evenodd" clip-rule="evenodd" d="M24.458 2.08335C24.458 1.50806 23.9916 1.04169 23.4163 1.04169L12.9997 1.04169C12.7234 1.04169 12.4585 1.15143 12.2631 1.34678L3.31299 10.2969C2.73096 10.8824 2.40427 11.6744 2.40427 12.5C2.40427 13.3256 2.73096 14.1176 3.313 14.7031L4.05176 13.9688L3.31519 14.7053L10.7835 22.1737C10.7837 22.1738 10.7834 22.1735 10.7835 22.1737C11.0737 22.464 11.4186 22.6948 11.7978 22.852C12.1771 23.0093 12.5838 23.0902 12.9945 23.0902C13.4051 23.0902 13.8118 23.0093 14.1912 22.852C14.5704 22.6948 14.915 22.4643 15.2052 22.1739C15.2053 22.1738 15.2051 22.174 15.2052 22.1739L24.1525 13.237C24.3481 13.0416 24.458 12.7765 24.458 12.5V2.08335ZM4.79051 13.2344C4.7902 13.2341 4.78988 13.2338 4.78956 13.2334C4.59615 13.0384 4.48761 12.7748 4.48761 12.5C4.48761 12.2253 4.59615 11.9617 4.78956 11.7666C4.78988 11.7663 4.7902 11.766 4.79051 11.7656L13.4311 3.12502L22.3747 3.12502V12.0682L13.7323 20.7005L13.7314 20.7014C13.6347 20.7982 13.5198 20.875 13.3934 20.9275C13.2669 20.9799 13.1314 21.0069 12.9945 21.0069C12.8576 21.0069 12.722 20.9799 12.5956 20.9275C12.4691 20.875 12.3542 20.7982 12.2575 20.7014L4.79051 13.2344Z" fill="#1A1A1A"/>
<path fill-rule="evenodd" clip-rule="evenodd" d="M19.25 7.29167C19.25 6.71637 18.7836 6.25 18.2083 6.25H18.1979C17.6226 6.25 17.1562 6.71637 17.1562 7.29167C17.1562 7.86696 17.6226 8.33333 18.1979 8.33333H18.2083C18.7836 8.33333 19.25 7.86696 19.25 7.29167Z" fill="#1A1A1A"/>
</svg>
