<svg width="26" height="25" viewBox="0 0 26 25" fill="none" xmlns="http://www.w3.org/2000/svg">
<path fill-rule="evenodd" clip-rule="evenodd" d="M5.15049 16.1088C6.12724 15.132 7.452 14.5833 8.83333 14.5833H17.1667C18.548 14.5833 19.8728 15.132 20.8495 16.1088C21.8263 17.0856 22.375 18.4103 22.375 19.7916V21.875C22.375 22.4503 21.9086 22.9166 21.3333 22.9166C20.758 22.9166 20.2917 22.4503 20.2917 21.875V19.7916C20.2917 18.9628 19.9624 18.168 19.3764 17.5819C18.7903 16.9959 17.9955 16.6666 17.1667 16.6666H8.83333C8.00453 16.6666 7.20968 16.9959 6.62362 17.5819C6.03757 18.168 5.70833 18.9628 5.70833 19.7916V21.875C5.70833 22.4503 5.24196 22.9166 4.66667 22.9166C4.09137 22.9166 3.625 22.4503 3.625 21.875V19.7916C3.625 18.4103 4.17373 17.0856 5.15049 16.1088Z" fill="#19191A"/>
<path fill-rule="evenodd" clip-rule="evenodd" d="M13.0003 4.16665C11.2744 4.16665 9.87533 5.56576 9.87533 7.29165C9.87533 9.01754 11.2744 10.4166 13.0003 10.4166C14.7262 10.4166 16.1253 9.01754 16.1253 7.29165C16.1253 5.56576 14.7262 4.16665 13.0003 4.16665ZM7.79199 7.29165C7.79199 4.41516 10.1238 2.08331 13.0003 2.08331C15.8768 2.08331 18.2087 4.41516 18.2087 7.29165C18.2087 10.1681 15.8768 12.5 13.0003 12.5C10.1238 12.5 7.79199 10.1681 7.79199 7.29165Z" fill="#19191A"/>
</svg>
