<svg width="24" height="24" viewBox="0 0 24 24" fill="none" xmlns="http://www.w3.org/2000/svg">
<path fill-rule="evenodd" clip-rule="evenodd" d="M12.0618 4.33331C12.5911 4.33331 13.0202 4.76237 13.0202 5.29165V18.7083C13.0202 19.2376 12.5911 19.6666 12.0618 19.6666C11.5326 19.6666 11.1035 19.2376 11.1035 18.7083V5.29165C11.1035 4.76237 11.5326 4.33331 12.0618 4.33331Z" fill="#19191A"/>
<path fill-rule="evenodd" clip-rule="evenodd" d="M4.67717 11.3224C5.05143 10.9481 5.65821 10.9481 6.03246 11.3224L12.0632 17.3531L18.0938 11.3224C18.4681 10.9481 19.0749 10.9481 19.4491 11.3224C19.8234 11.6966 19.8234 12.3034 19.4491 12.6777L12.7408 19.386C12.3665 19.7603 11.7598 19.7603 11.3855 19.386L4.67717 12.6777C4.30292 12.3034 4.30292 11.6966 4.67717 11.3224Z" fill="#19191A"/>
</svg>
