<svg width="389" height="256" viewBox="0 0 389 256" fill="none" xmlns="http://www.w3.org/2000/svg">
<path d="M378.398 57.724H9.60005V96.2316H378.077C378.085 77.6743 378.475 69.9347 378.398 57.724Z" fill="#1A1A1A"/>
<path d="M9.60005 57.724C9.60005 51.3697 9.60005 41.0634 9.60005 35.7728C9.35626 27.2432 14.4251 10.1841 36.6508 10.1841H353.219C361.261 10.9152 377.492 17.0565 378.077 35.7728C378.18 39.0662 378.347 49.5896 378.398 57.724M9.60005 57.724H378.398M9.60005 57.724C9.60005 71.8984 9.60005 79.3117 9.60005 96.2316M9.60005 57.724V96.2316M378.398 57.724C378.475 69.9347 378.085 77.6743 378.077 96.2316M378.077 96.2316C378.059 135.566 378.213 187.615 378.077 217.087C377.346 226.591 371.351 245.6 353.219 245.6C335.088 245.6 134.619 245.6 36.6508 245.6C27.6339 245.6 9.60005 239.897 9.60005 217.087C9.60005 201.931 9.60005 144.749 9.60005 96.2316M378.077 96.2316H9.60005" stroke="#1A1A1A" stroke-width="19"/>
<path fill-rule="evenodd" clip-rule="evenodd" d="M174.12 164.344H172.753C166.678 164.344 161.753 169.269 161.753 175.344C161.753 181.419 166.678 186.344 172.753 186.344H174.12H212.369H212.37C218.445 186.344 223.37 181.419 223.37 175.344C223.37 169.269 218.445 164.344 212.37 164.344H212.369H174.12Z" fill="#1A1A1A"/>
<path fill-rule="evenodd" clip-rule="evenodd" d="M240.807 186.344L279.634 186.344C279.634 186.344 279.634 186.344 279.634 186.344C285.709 186.344 290.634 181.419 290.634 175.344C290.634 169.269 285.709 164.344 279.634 164.344C279.634 164.344 279.634 164.344 279.634 164.344H241.385C241.373 164.344 241.36 164.344 241.348 164.344L240.807 164.344V164.359C235.001 164.659 230.385 169.463 230.385 175.344C230.385 181.226 235.001 186.029 240.807 186.329V186.344Z" fill="#1A1A1A"/>
<path fill-rule="evenodd" clip-rule="evenodd" d="M305.515 186.344L344.447 186.344C344.447 186.344 344.447 186.344 344.447 186.344C350.522 186.344 355.447 181.419 355.447 175.344C355.447 169.269 350.522 164.344 344.447 164.344C344.447 164.344 344.447 164.344 344.447 164.344H306.197C306.185 164.344 306.173 164.344 306.161 164.344L305.515 164.344V164.365C299.758 164.717 295.197 169.498 295.197 175.344C295.197 181.19 299.758 185.971 305.515 186.323V186.344Z" fill="#1A1A1A"/>
<path fill-rule="evenodd" clip-rule="evenodd" d="M85.4292 142.85C73.6046 148.874 65.5059 161.164 65.5059 175.344C65.5059 189.525 73.6046 201.814 85.4292 207.838C80.4696 210.365 74.8545 211.79 68.9067 211.79C48.7783 211.79 32.4609 195.473 32.4609 175.344C32.4609 155.216 48.7783 138.898 68.9067 138.898C74.8545 138.898 80.4696 140.323 85.4292 142.85Z" fill="#1A1A1A"/>
<circle cx="105.352" cy="175.344" r="36.4458" fill="#1A1A1A"/>
</svg>
