<svg width="20" height="21" viewBox="0 0 20 21" fill="none" xmlns="http://www.w3.org/2000/svg">
<g clip-path="url(#clip0_343_1060)">
<path fill-rule="evenodd" clip-rule="evenodd" d="M19.167 1.78994C19.167 1.3297 18.7939 0.956604 18.3337 0.956604L10.0003 0.956604C9.77931 0.956604 9.56735 1.0444 9.41107 1.20068L2.25098 8.36077C1.78536 8.82918 1.52401 9.46281 1.52401 10.1233C1.52401 10.7837 1.78536 11.4174 2.25099 11.8858L2.84199 11.2983L2.25274 11.8875L8.22741 17.8622C8.22752 17.8623 8.2273 17.8621 8.22741 17.8622C8.45952 18.0945 8.73546 18.2791 9.03881 18.4048C9.34231 18.5307 9.66762 18.5954 9.99616 18.5954C10.3247 18.5954 10.65 18.5307 10.9535 18.4048C11.2569 18.2791 11.5326 18.0947 11.7647 17.8624C11.7648 17.8623 11.7647 17.8624 11.7647 17.8624L18.9226 10.7129C19.0791 10.5566 19.167 10.3445 19.167 10.1233V1.78994ZM3.433 10.7108C3.43275 10.7105 3.43249 10.7103 3.43224 10.71C3.2775 10.5539 3.19067 10.3431 3.19067 10.1233C3.19067 9.90348 3.2775 9.6926 3.43224 9.53654C3.43249 9.53628 3.43275 9.53603 3.433 9.53577L10.3455 2.62327L17.5003 2.62327V9.77781L10.5864 16.6837L10.5857 16.6843C10.5083 16.7618 10.4164 16.8233 10.3153 16.8652C10.2141 16.9072 10.1057 16.9287 9.99616 16.9287C9.88664 16.9287 9.7782 16.9072 9.67704 16.8652C9.57588 16.8233 9.48397 16.7618 9.40658 16.6843L3.433 10.7108Z" fill="#1A1A1A"/>
<path fill-rule="evenodd" clip-rule="evenodd" d="M15 5.95662C15 5.49639 14.6269 5.12329 14.1667 5.12329H14.1583C13.6981 5.12329 13.325 5.49639 13.325 5.95662C13.325 6.41686 13.6981 6.78996 14.1583 6.78996H14.1667C14.6269 6.78996 15 6.41686 15 5.95662Z" fill="#1A1A1A"/>
</g>
<defs>
<clipPath id="clip0_343_1060">
<rect width="20" height="20" fill="white" transform="matrix(-1 0 0 1 20 0.123291)"/>
</clipPath>
</defs>
</svg>
