<svg width="24" height="24" viewBox="0 0 24 24" fill="none" xmlns="http://www.w3.org/2000/svg">
<path fill-rule="evenodd" clip-rule="evenodd" d="M4.39648 12C4.39648 11.4707 4.82554 11.0417 5.35482 11.0417H18.7715C19.3008 11.0417 19.7298 11.4707 19.7298 12C19.7298 12.5293 19.3008 12.9583 18.7715 12.9583H5.35482C4.82554 12.9583 4.39648 12.5293 4.39648 12Z" fill="#19191A"/>
<path fill-rule="evenodd" clip-rule="evenodd" d="M12.7408 4.61403C13.115 4.98829 13.115 5.59507 12.7408 5.96932L6.71011 12L12.7408 18.0307C13.115 18.405 13.115 19.0117 12.7408 19.386C12.3665 19.7602 11.7598 19.7602 11.3855 19.386L4.67717 12.6777C4.30292 12.3034 4.30292 11.6966 4.67717 11.3224L11.3855 4.61403C11.7598 4.23978 12.3665 4.23978 12.7408 4.61403Z" fill="#19191A"/>
</svg>
