<svg width="21" height="21" viewBox="0 0 21 21" fill="none" xmlns="http://www.w3.org/2000/svg">
<g clip-path="url(#clip0_260_1023)">
<path fill-rule="evenodd" clip-rule="evenodd" d="M15.844 2.84843C15.6439 2.84843 15.4458 2.88784 15.2609 2.96441C15.0761 3.04099 14.9081 3.15322 14.7666 3.29471L3.67309 14.3882L2.86503 17.3511L5.82791 16.543L16.9214 5.44953C17.0629 5.30804 17.1751 5.14007 17.2517 4.95521C17.3283 4.77035 17.3677 4.57221 17.3677 4.37212C17.3677 4.17202 17.3283 3.97389 17.2517 3.78903C17.1751 3.60417 17.0629 3.4362 16.9214 3.29471C16.7799 3.15322 16.612 3.04099 16.4271 2.96441C16.2422 2.88784 16.0441 2.84843 15.844 2.84843ZM14.6231 1.42461C15.0102 1.26428 15.425 1.18176 15.844 1.18176C16.263 1.18176 16.6778 1.26428 17.0649 1.42461C17.452 1.58494 17.8037 1.81994 18.0999 2.1162C18.3962 2.41245 18.6312 2.76415 18.7915 3.15122C18.9518 3.5383 19.0344 3.95316 19.0344 4.37212C19.0344 4.79108 18.9518 5.20594 18.7915 5.59301C18.6312 5.98009 18.3962 6.33179 18.0999 6.62804L6.84994 17.878C6.74739 17.9806 6.61986 18.0546 6.47994 18.0928L1.89661 19.3428C1.6081 19.4214 1.29955 19.3395 1.08809 19.128C0.876633 18.9166 0.794692 18.608 0.873377 18.3195L2.12338 13.7362C2.16153 13.5963 2.23554 13.4687 2.33809 13.3662L13.5881 2.1162C13.8843 1.81994 14.236 1.58494 14.6231 1.42461Z" fill="#FFE083"/>
</g>
<defs>
<clipPath id="clip0_260_1023">
<rect width="20" height="20" fill="white" transform="translate(0.0107422 0.205444)"/>
</clipPath>
</defs>
</svg>
