<svg width="24" height="24" viewBox="0 0 24 24" fill="none" xmlns="http://www.w3.org/2000/svg">
<g id="li:pencil">
<path id="Vector (Stroke)" fill-rule="evenodd" clip-rule="evenodd" d="M17.2929 1.29289C17.6834 0.902369 18.3166 0.902369 18.7071 1.29289L22.7071 5.29289C23.0976 5.68342 23.0976 6.31658 22.7071 6.70711C22.3166 7.09763 21.6834 7.09763 21.2929 6.70711L17.2929 2.70711C16.9024 2.31658 16.9024 1.68342 17.2929 1.29289Z" fill="#FFE083"/>
<path id="Vector (Stroke)_2" fill-rule="evenodd" clip-rule="evenodd" d="M14.2929 4.29289C14.6834 3.90237 15.3166 3.90237 15.7071 4.29289L19.7071 8.29289C20.0976 8.68342 20.0976 9.31658 19.7071 9.70711L8.2071 21.2071C8.08404 21.3302 7.93101 21.419 7.76311 21.4648L2.26311 22.9648C1.9169 23.0592 1.54664 22.9609 1.29289 22.7071C1.03914 22.4534 0.940807 22.0831 1.03523 21.7369L2.53523 16.2369C2.58102 16.069 2.66983 15.9159 2.79289 15.7929L14.2929 4.29289ZM4.39488 17.0193L3.42521 20.5748L6.98067 19.6051L17.5858 9L15 6.41421L4.39488 17.0193Z" fill="#FFE083"/>
</g>
</svg>
