<svg width="21" height="21" viewBox="0 0 21 21" fill="none" xmlns="http://www.w3.org/2000/svg">
<path fill-rule="evenodd" clip-rule="evenodd" d="M15.656 4.77069C15.9814 5.09613 15.9814 5.62376 15.656 5.9492L5.65599 15.9492C5.33055 16.2746 4.80291 16.2746 4.47748 15.9492C4.15204 15.6238 4.15204 15.0961 4.47748 14.7707L14.4775 4.77069C14.8029 4.44525 15.3306 4.44525 15.656 4.77069Z" fill="#19191A"/>
<path fill-rule="evenodd" clip-rule="evenodd" d="M4.47748 4.77069C4.80291 4.44525 5.33055 4.44525 5.65599 4.77069L15.656 14.7707C15.9814 15.0961 15.9814 15.6238 15.656 15.9492C15.3306 16.2746 14.8029 16.2746 14.4775 15.9492L4.47748 5.9492C4.15204 5.62376 4.15204 5.09613 4.47748 4.77069Z" fill="#19191A"/>
</svg>
