<svg width="301" height="93" viewBox="0 0 301 93" fill="none" xmlns="http://www.w3.org/2000/svg">
<path d="M37.9567 78.4007V49.9789L59.465 12.9536C60.8989 10.1882 62.5069 3.98158 57.4678 1.27759C51.8838 -1.71882 47.1295 1.85784 45.4845 4.65755L30.8895 33.8475L16.4481 4.65755C14.4054 1.27759 8.12139 -1.05761 3.6968 1.27759C-0.727792 3.61279 0.410704 10.1966 2.16057 12.9536L21.9791 47.2135V78.4007C21.9791 80.4561 24.3142 84.7304 29.9678 84.8533C35.6215 84.9762 37.9567 80.5833 37.9567 78.4007Z" fill="url(#paint0_linear_152_956)"/>
<path d="M64.5349 60.1185V23.4005C64.5349 20.2763 67.4421 16.4871 71.9092 16.4871C76.4782 16.4871 79.5908 20.2281 79.5908 22.3251V52.437C79.5908 54.3418 82.3562 57.8448 88.5014 57.9677C94.6467 58.0906 96.6439 54.4397 96.6439 52.437V22.3251C96.5927 20.2767 97.9344 16.2413 103.711 16.4871C109.488 16.7329 111.239 21.1985 111.393 23.4005C111.802 31.3382 112.376 49.6409 111.393 59.3504C110.409 69.0599 103.916 72.1018 100.792 72.4091C98.1802 72.4603 90.5294 72.532 80.8198 72.4091C71.1103 72.2862 64.5349 66.5332 64.5349 60.1185Z" fill="url(#paint1_linear_152_956)"/>
<path d="M126.61 16.4871C121.203 16.4871 120.201 21.0961 120.15 23.4005V67.9538C120.15 69.0292 121.357 72.6908 127.58 72.6908C133.735 72.6908 135.82 69.8485 135.974 67.9538L136.176 37.9055C136.176 36.1085 137.949 32.0857 144.806 32.0857C151.328 32.0857 153.641 36.3001 153.641 38.7637V67.9538C153.641 69.1454 155.78 72.4128 161.63 72.6239C168.119 72.858 170.131 68.9309 170.08 67.1385V38.7637C170.08 36.4673 172.634 32.2864 178.721 32.2864C184.04 32.2864 186.979 36.4338 186.979 38.7637V67.9538C186.979 69.9146 190.283 72.5904 195.445 72.5904C200.607 72.5904 202.803 67.9538 202.803 65.4957L203.725 38.7637C203.725 35.7315 206.061 32.2426 213.473 31.8181C221.066 31.3833 224.158 35.5977 224.158 38.7637V67.9538C224.158 69.6805 227.153 72.7242 232.204 72.7242C237.856 72.7242 239.629 69.5467 239.629 67.6402L239.067 29.326C239.067 24.11 230.777 16.2394 216.63 16.4871C205.939 16.6744 200.239 20.6737 198.549 22.6197C197.115 20.6737 191.404 16.4871 181.449 16.4871C171.493 16.4871 166.154 20.8768 164.413 22.8228C162.467 21.2353 156.27 16.4871 147.496 16.4871C139.094 16.4871 135.057 19.3225 133.879 21.3197C133.336 19.6078 132.018 16.4871 126.61 16.4871Z" fill="url(#paint2_linear_152_956)"/>
<path d="M286.225 21.557L275.932 50.4397L265.178 21.557C263.67 18.5252 261.597 16.1455 255.454 17.5108C251.029 18.494 250.532 24.0663 251.351 26.6268L267.636 66.4174L259.954 80.5516C257.939 84.0543 258.893 88.5179 262.706 91.2057C268.922 95.5868 275.074 90.3705 275.932 88.2331C283.05 70.5143 297.717 33.8782 299.438 29.0849C301.589 23.0933 301.261 18.0283 295.116 16.9529C290.2 16.0925 287.102 19.0831 286.225 21.557Z" fill="url(#paint3_linear_152_956)"/>
<defs>
<linearGradient id="paint0_linear_152_956" x1="3.50709" y1="46.5251" x2="306.858" y2="46.525" gradientUnits="userSpaceOnUse">
<stop stop-color="#F2C94C"/>
<stop offset="1" stop-color="#FFE083" stop-opacity="0.88"/>
</linearGradient>
<linearGradient id="paint1_linear_152_956" x1="3.50709" y1="46.5251" x2="306.858" y2="46.525" gradientUnits="userSpaceOnUse">
<stop stop-color="#F2C94C"/>
<stop offset="1" stop-color="#FFE083" stop-opacity="0.88"/>
</linearGradient>
<linearGradient id="paint2_linear_152_956" x1="3.50709" y1="46.5251" x2="306.858" y2="46.525" gradientUnits="userSpaceOnUse">
<stop stop-color="#F2C94C"/>
<stop offset="1" stop-color="#FFE083" stop-opacity="0.88"/>
</linearGradient>
<linearGradient id="paint3_linear_152_956" x1="3.50709" y1="46.5251" x2="306.858" y2="46.525" gradientUnits="userSpaceOnUse">
<stop stop-color="#F2C94C"/>
<stop offset="1" stop-color="#FFE083" stop-opacity="0.88"/>
</linearGradient>
</defs>
</svg>
