<svg width="24" height="24" viewBox="0 0 24 24" fill="none" xmlns="http://www.w3.org/2000/svg">
<path fill-rule="evenodd" clip-rule="evenodd" d="M7.78174 3.24172C7.59776 3.08349 7.36252 2.99756 7.11986 2.99995L7.11002 3.00005V3H3.9832C3.86531 3.01521 3.75096 3.05133 3.64558 3.10677C3.52909 3.16805 3.42585 3.25172 3.34177 3.35298C3.25769 3.45425 3.19443 3.57112 3.15561 3.69689C3.1174 3.82072 3.10362 3.95079 3.11503 4.07985C3.43732 7.02144 4.44874 9.84562 6.06721 12.3231L6.07398 12.3334L6.07391 12.3335C7.53108 14.6255 9.47453 16.5689 11.7665 18.0261L11.7741 18.0309L11.7741 18.031C14.2249 19.6203 17.0123 20.6163 19.9149 20.94H20.05C20.3152 20.94 20.5696 20.8346 20.7571 20.6471C20.9447 20.4596 21.05 20.2052 21.05 19.94V17.2324C21.0149 17.1257 20.9974 17.0119 21.0003 16.8952C21.0064 16.65 20.9222 16.4111 20.7636 16.2239C20.6057 16.0376 20.3851 15.9155 20.1434 15.8806C19.1113 15.7427 18.0978 15.4901 17.1217 15.1274L17.1182 15.126C16.9392 15.0588 16.7447 15.0442 16.5577 15.0841C16.3715 15.1238 16.2005 15.2159 16.0648 15.3494L14.7971 16.6171C14.4788 16.9354 13.9871 17.0018 13.5957 16.7793C10.9357 15.2668 8.73325 13.0643 7.22073 10.4043C6.99821 10.013 7.0646 9.5212 7.38292 9.20289L8.65055 7.93525C8.78413 7.79956 8.8762 7.62854 8.91592 7.4423C8.9558 7.25532 8.94124 7.06082 8.87397 6.88186L8.87263 6.8783L8.87264 6.87829C8.50998 5.90227 8.25735 4.88883 8.11941 3.85679C8.08485 3.61775 7.96492 3.39925 7.78174 3.24172ZM7.10559 0.999998C7.83164 0.994161 8.53524 1.25184 9.08582 1.72535C9.63778 2.20003 9.99829 2.85922 10.1002 3.58005L10.1013 3.58785L10.1013 3.58786C10.2193 4.47336 10.4359 5.34291 10.7469 6.18035C10.948 6.71662 10.9914 7.29928 10.8719 7.85946C10.7523 8.42041 10.4744 8.9353 10.0711 9.34314L10.0671 9.34712L10.0671 9.34711L9.35004 10.0642C10.5259 11.9088 12.0912 13.4741 13.9358 14.65L14.6529 13.9329L14.6569 13.9289C15.0647 13.5257 15.5796 13.2477 16.1406 13.1281C16.7008 13.0086 17.2836 13.052 17.8199 13.2532C18.6573 13.5642 19.5267 13.7807 20.4122 13.8988L20.4197 13.8998L20.4197 13.8998C21.1484 14.0026 21.8138 14.3696 22.2895 14.931C22.6888 15.4023 22.9311 15.983 22.9877 16.5925C23.0282 16.7017 23.05 16.8191 23.05 16.94V19.94C23.05 20.7356 22.734 21.4987 22.1713 22.0613C21.6087 22.6239 20.8457 22.94 20.05 22.94H19.86C19.8239 22.94 19.7879 22.938 19.752 22.9341C16.5208 22.5831 13.417 21.4793 10.6897 19.7115C8.15358 18.0983 6.0028 15.9477 4.38945 13.4117C2.59927 10.6696 1.48114 7.54392 1.12592 4.28847L1.12446 4.27411C1.0873 3.88099 1.12811 3.48441 1.24455 3.10711C1.36099 2.7298 1.55078 2.3792 1.80301 2.0754C2.05525 1.7716 2.36498 1.52058 2.71444 1.33674C3.0639 1.15291 3.44622 1.03987 3.83946 1.00411C3.86957 1.00137 3.89979 0.999998 3.93002 0.999998H7.10559ZM13.0555 1.89521C13.1134 1.34597 13.6056 0.94763 14.1548 1.0055C16.4195 1.24414 18.535 2.24861 20.1513 3.85281C21.7676 5.45702 22.788 7.56485 23.0437 9.82773C23.1057 10.3765 22.7111 10.8717 22.1623 10.9337C21.6135 10.9957 21.1183 10.6011 21.0563 10.0523C20.8518 8.24197 20.0355 6.5557 18.7424 5.27234C17.4494 3.98898 15.757 3.1854 13.9452 2.99449C13.396 2.93662 12.9977 2.44445 13.0555 1.89521ZM13.0689 5.80653C13.1758 5.26468 13.7016 4.91204 14.2435 5.01889C15.4237 5.25161 16.5067 5.83372 17.3519 6.68966C18.1972 7.5456 18.7656 8.63585 18.9835 9.81889C19.0835 10.362 18.7243 10.8834 18.1811 10.9835C17.638 11.0835 17.1166 10.7243 17.0166 10.1811C16.8713 9.39241 16.4924 8.66558 15.9289 8.09495C15.3654 7.52433 14.6434 7.13625 13.8566 6.98111C13.3147 6.87426 12.9621 6.34838 13.0689 5.80653Z" fill="#FFE083"/>
</svg>
