<svg width="65" height="65" viewBox="0 0 65 65" fill="none" xmlns="http://www.w3.org/2000/svg">
<path d="M16.2806 63.2349C11.7944 59.1222 22.2084 46.5872 28.0808 40.7149C28.2398 42.1358 29.0669 45.2224 31.1027 46.7239C32.4358 47.707 31 48.7747 25.9691 56.3631C23.7797 59.6655 20.9321 67.499 16.2806 63.2349Z" fill="#FFE083"/>
<path d="M43.288 31.2415C41.3767 37.0585 40.795 35.9782 37.0555 37.474C36.0664 37.6068 34.9201 36.0439 34.4706 35.2459C36.7951 34.1627 39.7322 28.9708 38.0486 26.5929C35.0986 22.4261 36.1424 18.9469 36.887 17.8257C40.7017 12.6018 48.5522 2.24567 49.049 1.8869C49.6061 1.48468 50.4683 2.08727 50.2345 3.55664C50.0475 4.73214 44.9248 15.1001 42.3868 20.1371C42.2309 20.4321 42.1697 21.1991 43.1715 21.9071C44.1734 22.615 44.9823 22.3122 45.1585 21.9071L52.9395 5.1095C53.3398 4.54215 54.1433 5.20389 54.0248 5.47684L47.3292 21.9071C47.1121 22.304 46.9452 23.2537 48.0138 23.8774C49.0824 24.501 50.0374 23.659 50.2683 23.0978C52.0688 18.7212 55.7861 9.51936 56.2515 7.72441C56.7169 5.92946 58.4677 6.81536 58.5256 7.25181C57.3954 28.9906 49.7464 31.3212 46.4458 30.1613C44.8684 29.4766 43.5283 30.5102 43.288 31.2415Z" fill="#FFE083"/>
<path d="M46.1114 64.8223C47.8378 64.6579 49.482 62.6848 48.9476 59.4376C48.7791 58.4136 45.6142 50.1669 39.5557 45.3201C33.9596 40.8433 31.946 35.6883 27.779 30.5004C26.4838 28.8878 26.5887 25.6247 27.779 23.5538C30.1593 19.4128 19.7201 4.81029 14.8723 1.76863C13.0038 0.596241 12.6253 2.28928 12.8582 2.79623C15.8862 7.98905 21.9916 18.5062 22.1889 19.0324C22.4355 19.69 22.6299 20.2913 21.9422 20.7587C21.3686 21.1487 20.5248 21.2387 20.257 20.7587C17.4893 15.7988 11.6416 5.6653 10.392 4.81034C9.14243 3.95537 8.74974 4.92409 8.99447 5.3858C11.6525 10.4005 17.092 20.6683 17.5852 21.6219C18.2018 22.8139 18.0374 23.1428 16.9686 23.7593C16.3232 24.1317 15.3748 24.0066 15.119 23.5538C12.1571 18.3113 7.33528 6.80601 6.56934 6.24898C3.65059 4.12634 7.22047 17.6152 9.68672 22.7121C12.153 27.809 15.8212 30.5767 18.3407 30.7576C18.7575 30.7875 21.3803 31.3412 23.5308 32.5772C25.4074 33.6558 26.7823 35.3425 27.2263 36.1292C29.7238 40.5547 41.7461 62.5134 42.7409 63.507C43.7915 64.5563 44.385 64.9867 46.1114 64.8223Z" fill="#F2C94C"/>
</svg>
