<svg width="52" height="51" viewBox="0 0 52 51" fill="none" xmlns="http://www.w3.org/2000/svg">
<path fill-rule="evenodd" clip-rule="evenodd" d="M26.0812 49.9632L50.422 40.4808V7.29521L26.0812 16.3824L1.57812 7.29521V40.4808L26.0812 49.9632Z" fill="#FFE083"/>
<path d="M26.0812 16.3824C26.0812 29.4965 26.0812 49.9632 26.0812 49.9632M26.0812 16.3824C35.5868 12.8336 50.422 7.29521 50.422 7.29521M26.0812 16.3824C16.5121 12.8336 1.57812 7.29521 1.57812 7.29521M26.0812 16.3824L50.422 7.29521M26.0812 16.3824L1.57812 7.29521M26.0812 49.9632L50.422 40.4808V7.29521M26.0812 49.9632L1.57812 40.4808V7.29521M50.422 7.29521L26.0812 0.72052L1.57812 7.29521" stroke="#FFE083"/>
<path d="M26.1206 16.335V50.0925" stroke="#F2C94C" stroke-width="0.4"/>
<path d="M26.8115 25.4455L26.1281 16.3048L50.5603 7.42035L51.3292 16.3048L26.8115 25.4455Z" fill="#FCCB36" stroke="#FCCB36"/>
<path d="M26.1281 16.3047L1.61045 7.33484L0.670776 16.3047L25.1884 25.4455L26.1281 16.3047Z" fill="#FCCB36" stroke="#FCCB36"/>
<path d="M33.4318 41.3233L39.4653 29.3016C38.676 28.7173 37.5626 26.7337 39.0382 24.2395C40.5137 21.7453 42.6147 20.8301 43.3441 21.3439C44.0735 21.8578 45.1783 22.9702 44.2488 26.4937C43.5052 29.3125 41.3289 29.7906 40.3337 29.6773C38.8116 33.6846 35.7277 41.809 35.5695 42.2481C35.3717 42.797 34.8399 43.2013 34.0238 42.8879C33.3709 42.6372 33.3571 41.7404 33.4318 41.3233Z" fill="white" stroke="white"/>
<path d="M18.1093 42.9107L11.5655 31.063C10.2175 31.4264 9.00526 29.9475 8.56765 29.1626L5.61563 24.4174C5.61306 24.3211 5.54305 24.1689 5.74941 24.0405C5.91683 23.9363 6.08143 24.0297 6.13911 24.0917L8.98108 28.6601C9.03076 28.7502 9.15665 28.8552 9.33297 28.7455C9.5093 28.6358 9.45321 28.4874 9.39434 28.403L6.55238 23.8346C6.53143 23.7498 6.53361 23.5526 6.70994 23.4429C6.88626 23.3332 7.0549 23.4241 7.11717 23.4833L9.95914 28.0516L9.96056 28.0539C10.013 28.1382 10.0956 28.2711 10.3031 28.142C10.5125 28.0117 10.4089 27.8839 10.3586 27.8031L7.51666 23.2348C7.44402 23.118 7.49767 22.9529 7.66119 22.8512C7.86755 22.7228 8.02104 22.8231 8.06768 22.892L10.9096 27.4603C10.9538 27.5313 11.1013 27.6454 11.2666 27.5426C11.4319 27.4398 11.4013 27.2986 11.3367 27.1947L8.49472 22.6263C8.43704 22.5643 8.46565 22.3507 8.60345 22.265C8.82386 22.1279 8.98654 22.2225 9.04346 22.2849C9.55328 23.1209 10.8574 25.2402 11.9955 27.0302C13.1335 28.8202 12.7127 30.1351 12.36 30.5688L20.0736 41.6887C20.1547 42.0158 20.164 42.759 19.5527 43.1148C18.9414 43.4706 18.3357 43.127 18.1093 42.9107Z" fill="white" stroke="white"/>
</svg>
