<svg width="66" height="66" viewBox="0 0 66 66" fill="none" xmlns="http://www.w3.org/2000/svg">
<path d="M16.9514 63.9554C12.4652 59.8427 22.8792 47.3078 28.7515 41.4354C28.9106 42.8563 29.7377 45.943 31.7735 47.4444C33.1066 48.4275 31.6707 49.4952 26.6399 57.0836C24.4505 60.386 21.6029 68.2195 16.9514 63.9554Z" fill="#FFE083"/>
<path d="M43.9588 31.9621C42.0475 37.779 41.4658 36.6987 37.7263 38.1945C36.7372 38.3273 35.5909 36.7644 35.1414 35.9664C37.4659 34.8833 40.403 29.6914 38.7194 27.3134C35.7693 23.1466 36.8132 19.6675 37.5578 18.5462C41.3725 13.3223 49.2229 2.96619 49.7198 2.60742C50.2768 2.2052 51.1391 2.80779 50.9053 4.27716C50.7183 5.45266 45.5956 15.8206 43.0576 20.8577C42.9017 21.1527 42.8405 21.9196 43.8423 22.6276C44.8442 23.3355 45.6531 23.0327 45.8293 22.6276L53.6103 5.83002C54.0105 5.26267 54.8141 5.92441 54.6956 6.19736L48 22.6276C47.7829 23.0245 47.6159 23.9742 48.6846 24.5979C49.7532 25.2215 50.7082 24.3796 50.9391 23.8183C52.7396 19.4418 56.4569 10.2399 56.9223 8.44493C57.3876 6.64998 59.1384 7.53588 59.1963 7.97233C58.0662 29.7112 50.4172 32.0417 47.1165 30.8818C45.5392 30.1971 44.1991 31.2307 43.9588 31.9621Z" fill="#FFE083"/>
<path d="M46.7822 65.5428C48.5086 65.3784 50.1527 63.4053 49.6184 60.1581C49.4499 59.1342 46.2849 50.8874 40.2265 46.0407C34.6304 41.5638 32.6168 36.4089 28.4498 31.2209C27.1546 29.6083 27.2595 26.3452 28.4498 24.2743C30.83 20.1333 20.3908 5.53081 15.5431 2.48915C13.6746 1.31676 13.2961 3.0098 13.529 3.51675C16.557 8.70957 22.6623 19.2267 22.8596 19.7529C23.1063 20.4105 23.3007 21.0118 22.613 21.4792C22.0393 21.8692 21.1956 21.9592 20.9277 21.4792C18.1601 16.5194 12.3123 6.38582 11.0628 5.53086C9.81321 4.67589 9.42052 5.64461 9.66525 6.10632C12.3233 11.121 17.7627 21.3888 18.256 22.3424C18.8725 23.5345 18.7081 23.8633 17.6394 24.4798C16.994 24.8522 16.0456 24.7271 15.7897 24.2743C12.8278 19.0318 8.00606 7.52653 7.24012 6.9695C4.32137 4.84686 7.89125 18.3357 10.3575 23.4326C12.8237 28.5295 16.492 31.2973 19.0115 31.4781C19.4283 31.508 22.0511 32.0617 24.2016 33.2977C26.0782 34.3763 27.4531 36.063 27.8971 36.8497C30.3946 41.2753 42.4169 63.2339 43.4117 64.2275C44.4623 65.2769 45.0558 65.7072 46.7822 65.5428Z" fill="#F2C94C"/>
</svg>
