<svg width="25" height="25" viewBox="0 0 25 25" fill="none" xmlns="http://www.w3.org/2000/svg">
<path fill-rule="evenodd" clip-rule="evenodd" d="M5.5957 5.10522C5.04342 5.10522 4.5957 5.55294 4.5957 6.10522V20.1052C4.5957 20.6575 5.04342 21.1052 5.5957 21.1052H19.5957C20.148 21.1052 20.5957 20.6575 20.5957 20.1052V6.10522C20.5957 5.55294 20.148 5.10522 19.5957 5.10522H5.5957ZM2.5957 6.10522C2.5957 4.44837 3.93885 3.10522 5.5957 3.10522H19.5957C21.2526 3.10522 22.5957 4.44837 22.5957 6.10522V20.1052C22.5957 21.7621 21.2526 23.1052 19.5957 23.1052H5.5957C3.93885 23.1052 2.5957 21.7621 2.5957 20.1052V6.10522Z" fill="black"/>
<path fill-rule="evenodd" clip-rule="evenodd" d="M16.5957 1.10522C17.148 1.10522 17.5957 1.55294 17.5957 2.10522V6.10522C17.5957 6.65751 17.148 7.10522 16.5957 7.10522C16.0434 7.10522 15.5957 6.65751 15.5957 6.10522V2.10522C15.5957 1.55294 16.0434 1.10522 16.5957 1.10522Z" fill="black"/>
<path fill-rule="evenodd" clip-rule="evenodd" d="M8.5957 1.10522C9.14799 1.10522 9.5957 1.55294 9.5957 2.10522V6.10522C9.5957 6.65751 9.14799 7.10522 8.5957 7.10522C8.04342 7.10522 7.5957 6.65751 7.5957 6.10522V2.10522C7.5957 1.55294 8.04342 1.10522 8.5957 1.10522Z" fill="black"/>
<path fill-rule="evenodd" clip-rule="evenodd" d="M2.5957 10.1052C2.5957 9.55294 3.04342 9.10522 3.5957 9.10522H21.5957C22.148 9.10522 22.5957 9.55294 22.5957 10.1052C22.5957 10.6575 22.148 11.1052 21.5957 11.1052H3.5957C3.04342 11.1052 2.5957 10.6575 2.5957 10.1052Z" fill="black"/>
</svg>
