<svg width="22" height="22" viewBox="0 0 22 22" fill="none" xmlns="http://www.w3.org/2000/svg">
<g clip-path="url(#clip0_144_1000)">
<path fill-rule="evenodd" clip-rule="evenodd" d="M4.71387 10.5302C4.23062 10.5302 3.83887 10.922 3.83887 11.4052V17.5302C3.83887 18.0135 4.23062 18.4052 4.71387 18.4052H16.9639C17.4471 18.4052 17.8389 18.0135 17.8389 17.5302V11.4052C17.8389 10.922 17.4471 10.5302 16.9639 10.5302H4.71387ZM2.08887 11.4052C2.08887 9.95546 3.26412 8.78021 4.71387 8.78021H16.9639C18.4136 8.78021 19.5889 9.95546 19.5889 11.4052V17.5302C19.5889 18.98 18.4136 20.1552 16.9639 20.1552H4.71387C3.26412 20.1552 2.08887 18.98 2.08887 17.5302V11.4052Z" fill="#FFE083"/>
<path fill-rule="evenodd" clip-rule="evenodd" d="M10.8389 2.65521C9.91061 2.65521 9.02037 3.02396 8.36399 3.68034C7.70762 4.33672 7.33887 5.22695 7.33887 6.15521V9.65521C7.33887 10.1385 6.94712 10.5302 6.46387 10.5302C5.98062 10.5302 5.58887 10.1385 5.58887 9.65521V6.15521C5.58887 4.76283 6.14199 3.42747 7.12656 2.4429C8.11112 1.45834 9.44648 0.905212 10.8389 0.905212C12.2313 0.905212 13.5666 1.45834 14.5512 2.4429C15.5357 3.42747 16.0889 4.76283 16.0889 6.15521V9.65521C16.0889 10.1385 15.6971 10.5302 15.2139 10.5302C14.7306 10.5302 14.3389 10.1385 14.3389 9.65521V6.15521C14.3389 5.22695 13.9701 4.33672 13.3137 3.68034C12.6574 3.02396 11.7671 2.65521 10.8389 2.65521Z" fill="#FFE083"/>
</g>
<defs>
<clipPath id="clip0_144_1000">
<rect width="21" height="21" fill="white" transform="translate(0.338867 0.0302124)"/>
</clipPath>
</defs>
</svg>
