<svg width="28" height="28" viewBox="0 0 28 28" fill="none" xmlns="http://www.w3.org/2000/svg">
<path fill-rule="evenodd" clip-rule="evenodd" d="M5.62604 17.7405C6.68093 16.6857 8.11167 16.093 9.60352 16.093H18.6035C20.0954 16.093 21.5261 16.6857 22.581 17.7405C23.6359 18.7954 24.2285 20.2262 24.2285 21.718V23.968C24.2285 24.5893 23.7248 25.093 23.1035 25.093C22.4822 25.093 21.9785 24.5893 21.9785 23.968V21.718C21.9785 20.8229 21.6229 19.9645 20.99 19.3315C20.3571 18.6986 19.4986 18.343 18.6035 18.343H9.60352C8.70841 18.343 7.84997 18.6986 7.21703 19.3315C6.58409 19.9645 6.22852 20.8229 6.22852 21.718V23.968C6.22852 24.5893 5.72484 25.093 5.10352 25.093C4.4822 25.093 3.97852 24.5893 3.97852 23.968V21.718C3.97852 20.2262 4.57115 18.7954 5.62604 17.7405Z" fill="#FFE083"/>
<path fill-rule="evenodd" clip-rule="evenodd" d="M14.1035 4.84302C12.2396 4.84302 10.7285 6.35406 10.7285 8.21802C10.7285 10.082 12.2396 11.593 14.1035 11.593C15.9675 11.593 17.4785 10.082 17.4785 8.21802C17.4785 6.35406 15.9675 4.84302 14.1035 4.84302ZM8.47852 8.21802C8.47852 5.11142 10.9969 2.59302 14.1035 2.59302C17.2101 2.59302 19.7285 5.11142 19.7285 8.21802C19.7285 11.3246 17.2101 13.843 14.1035 13.843C10.9969 13.843 8.47852 11.3246 8.47852 8.21802Z" fill="#FFE083"/>
</svg>
