<svg width="21" height="21" viewBox="0 0 21 21" fill="none" xmlns="http://www.w3.org/2000/svg">
<g clip-path="url(#clip0_260_1028)">
<path fill-rule="evenodd" clip-rule="evenodd" d="M2.6106 5.13387C2.6106 4.67363 2.98369 4.30054 3.44393 4.30054H18.4439C18.9042 4.30054 19.2773 4.67363 19.2773 5.13387C19.2773 5.59411 18.9042 5.9672 18.4439 5.9672H3.44393C2.98369 5.9672 2.6106 5.59411 2.6106 5.13387Z" fill="#19191A"/>
<path fill-rule="evenodd" clip-rule="evenodd" d="M9.2771 2.63395C9.05609 2.63395 8.84412 2.72175 8.68784 2.87803C8.53156 3.03431 8.44377 3.24627 8.44377 3.46728V4.30062H13.4438V3.46728C13.4438 3.24627 13.356 3.03431 13.1997 2.87803C13.0434 2.72175 12.8314 2.63395 12.6104 2.63395H9.2771ZM15.1104 4.30062V3.46728C15.1104 2.80424 14.847 2.16836 14.3782 1.69952C13.9094 1.23068 13.2735 0.967285 12.6104 0.967285H9.2771C8.61406 0.967285 7.97817 1.23068 7.50933 1.69952C7.04049 2.16836 6.7771 2.80424 6.7771 3.46728V4.30062H5.11043C4.6502 4.30062 4.2771 4.67371 4.2771 5.13395V16.8006C4.2771 17.4637 4.54049 18.0995 5.00933 18.5684C5.47817 19.0372 6.11406 19.3006 6.7771 19.3006H15.1104C15.7735 19.3006 16.4094 19.0372 16.8782 18.5684C17.347 18.0995 17.6104 17.4637 17.6104 16.8006V5.13395C17.6104 4.67371 17.2373 4.30062 16.7771 4.30062H15.1104ZM5.94377 5.96728V16.8006C5.94377 17.0216 6.03156 17.2336 6.18784 17.3899C6.34412 17.5462 6.55609 17.6339 6.7771 17.6339H15.1104C15.3314 17.6339 15.5434 17.5462 15.6997 17.3899C15.856 17.2336 15.9438 17.0216 15.9438 16.8006V5.96728H5.94377Z" fill="#19191A"/>
<path fill-rule="evenodd" clip-rule="evenodd" d="M9.27718 8.46729C9.73742 8.46729 10.1105 8.84038 10.1105 9.30062V14.3006C10.1105 14.7609 9.73742 15.134 9.27718 15.134C8.81694 15.134 8.44385 14.7609 8.44385 14.3006V9.30062C8.44385 8.84038 8.81694 8.46729 9.27718 8.46729Z" fill="#19191A"/>
<path fill-rule="evenodd" clip-rule="evenodd" d="M12.6104 8.46729C13.0707 8.46729 13.4438 8.84038 13.4438 9.30062V14.3006C13.4438 14.7609 13.0707 15.134 12.6104 15.134C12.1502 15.134 11.7771 14.7609 11.7771 14.3006V9.30062C11.7771 8.84038 12.1502 8.46729 12.6104 8.46729Z" fill="#19191A"/>
</g>
<defs>
<clipPath id="clip0_260_1028">
<rect width="20" height="20" fill="white" transform="translate(0.943848 0.133911)"/>
</clipPath>
</defs>
</svg>
