<svg width="301" height="275" viewBox="0 0 301 275" fill="none" xmlns="http://www.w3.org/2000/svg">
<path d="M205.476 139.971L130.259 139.737C127.388 139.737 124.947 141.514 124.947 145.204C124.947 148.549 128.626 150.576 130.259 150.576L205.476 150.81C207.136 150.81 210.447 148.816 210.447 145.204C210.447 141.349 207.136 139.971 205.476 139.971Z" fill="#1A1A1A"/>
<path fill-rule="evenodd" clip-rule="evenodd" d="M34.9092 52.1785L60.7231 63.1925L88.9463 198.801C89.7277 201.501 91.2868 209.471 102.025 209.471C112.764 209.471 240.365 209.014 240.365 209.014C240.365 209.014 245.969 209.014 245.969 203.133C246.339 199.057 243.514 198.801 240.044 198.801C230.561 198.801 143.328 197.08 100.304 198.801L96.8626 181.592H238.323C241.994 181.592 249.887 179.527 252.09 171.267C254.293 163.006 264.022 116.197 268.611 93.8249C269.568 89.157 266.752 79.3003 256.564 79.025C246.377 78.7496 132.084 78.9102 76.2115 79.025L73.1138 63.1925C72.5402 60.2095 66.4774 53.5321 64.5092 52.1785C62.541 50.825 46.841 44.8359 41.4488 42.1972C39.2474 41.1198 35.2702 41.4416 33.3231 43.9403C31.6414 46.0983 31.6489 50.6811 34.9092 52.1785ZM256.564 90.7915H79.0152L94.8348 169.438H241.279L256.564 90.7915Z" fill="#1A1A1A"/>
<path d="M124.947 109.45H210.447C212.107 109.45 215.418 110.829 215.418 114.684C215.418 118.296 212.107 120.29 210.447 120.29H124.947C123.314 120.29 119.635 118.262 119.635 114.918C119.635 111.227 122.077 109.45 124.947 109.45Z" fill="#1A1A1A"/>
<circle cx="118.35" cy="235.614" r="17.599" stroke="#1A1A1A" stroke-width="9"/>
<circle cx="220.417" cy="235.614" r="17.599" stroke="#1A1A1A" stroke-width="9"/>
</svg>
